<?xml version="1.0" standalone="no"?>
<!DOCTYPE svg PUBLIC "-//W3C//DTD SVG 20010904//EN"
 "http://www.w3.org/TR/2001/REC-SVG-20010904/DTD/svg10.dtd">
<svg version="1.0" xmlns="http://www.w3.org/2000/svg"
 width="338.000000pt" height="338.000000pt" viewBox="0 0 338.000000 338.000000"
 preserveAspectRatio="xMidYMid meet">
<metadata>
Created by potrace 1.11, written by Peter Selinger 2001-2013
</metadata>
<g transform="translate(0.000000,338.000000) scale(0.100000,-0.100000)"
fill="#000000" stroke="none">
<path d="M1649 3199 c-18 -34 3 -69 41 -69 24 0 33 6 40 26 13 32 13 30 -6 48
-22 23 -61 20 -75 -5z"/>
<path d="M1394 3043 c-8 -32 6 -57 35 -61 28 -4 51 14 51 42 0 30 -18 46 -52
46 -22 0 -29 -6 -34 -27z"/>
<path d="M1913 3063 c-16 -6 -17 -55 -1 -71 28 -28 78 -7 78 33 0 37 -36 55
-77 38z"/>
<path d="M1150 2910 c-11 -11 -20 -26 -20 -34 0 -20 28 -46 50 -46 17 0 50 34
50 52 0 11 -38 48 -50 48 -5 0 -19 -9 -30 -20z"/>
<path d="M1657 2912 c-22 -24 -21 -45 1 -65 24 -22 45 -21 64 1 19 21 15 52
-8 69 -24 18 -38 16 -57 -5z"/>
<path d="M2165 2910 c-40 -44 21 -105 65 -65 18 16 19 50 2 67 -17 17 -51 16
-67 -2z"/>
<path d="M898 2769 c-26 -15 -23 -65 3 -80 32 -17 69 6 69 42 0 40 -37 59 -72
38z"/>
<path d="M1408 2769 c-26 -15 -23 -65 3 -80 34 -18 69 3 69 40 0 42 -36 62
-72 40z"/>
<path d="M1918 2769 c-26 -15 -23 -65 3 -80 48 -25 92 37 53 75 -18 18 -32 20
-56 5z"/>
<path d="M2422 2768 c-19 -19 -15 -66 7 -78 27 -14 37 -13 55 6 17 17 20 42 8
61 -11 18 -56 25 -70 11z"/>
<path d="M636 2611 c-35 -39 8 -91 55 -68 30 16 36 43 13 68 -22 24 -46 24
-68 0z"/>
<path d="M1146 2614 c-22 -21 -20 -50 5 -67 26 -19 58 -10 71 19 21 46 -41 84
-76 48z"/>
<path d="M1656 2614 c-29 -29 -18 -61 27 -77 26 -9 60 28 51 56 -12 39 -50 49
-78 21z"/>
<path d="M2166 2614 c-9 -8 -16 -22 -16 -30 0 -16 35 -54 50 -54 12 0 50 37
50 48 0 4 -7 18 -16 30 -18 26 -46 28 -68 6z"/>
<path d="M2676 2614 c-22 -21 -20 -50 5 -67 44 -32 94 14 64 59 -18 28 -46 31
-69 8z"/>
<path d="M382 2468 c-15 -15 -15 -51 0 -66 28 -28 78 -7 78 33 0 27 -18 45
-45 45 -12 0 -26 -5 -33 -12z"/>
<path d="M892 2468 c-19 -19 -14 -55 10 -72 19 -13 25 -14 43 -2 24 16 31 51
15 72 -15 17 -52 18 -68 2z"/>
<path d="M1402 2468 c-7 -7 -12 -21 -12 -33 0 -12 5 -26 12 -33 7 -7 21 -12
33 -12 12 0 26 5 33 12 7 7 12 21 12 33 0 12 -5 26 -12 33 -7 7 -21 12 -33 12
-12 0 -26 -5 -33 -12z"/>
<path d="M1906 2464 c-14 -37 -6 -64 21 -70 14 -4 33 -2 42 3 20 13 26 50 11
69 -17 19 -66 18 -74 -2z"/>
<path d="M2418 2463 c-17 -19 -11 -50 14 -70 20 -17 62 6 66 35 7 47 -48 71
-80 35z"/>
<path d="M2923 2458 c-15 -34 3 -68 37 -68 31 0 50 17 50 45 0 47 -68 64 -87
23z"/>
<path d="M1149 2319 c-23 -23 -24 -42 -3 -63 26 -27 64 -18 77 17 17 45 -40
80 -74 46z"/>
<path d="M630 2310 c-14 -27 -4 -57 21 -65 46 -15 81 24 59 65 -15 27 -65 27
-80 0z"/>
<path d="M1650 2315 c-19 -23 -4 -64 26 -71 44 -11 74 35 49 76 -9 15 -61 12
-75 -5z"/>
<path d="M2160 2315 c-17 -20 -5 -62 20 -70 46 -15 81 25 59 67 -12 22 -61 24
-79 3z"/>
<path d="M2670 2315 c-19 -23 -4 -64 26 -71 44 -11 74 35 49 76 -9 15 -61 12
-75 -5z"/>
<path d="M393 2180 c-31 -13 -32 -65 -2 -81 51 -27 97 43 52 77 -21 16 -21 16
-50 4z"/>
<path d="M897 2179 c-25 -14 -22 -66 4 -80 45 -24 88 25 61 69 -11 17 -44 22
-65 11z"/>
<path d="M1401 2177 c-19 -19 -13 -65 10 -78 46 -24 88 25 60 70 -11 17 -56
22 -70 8z"/>
<path d="M1918 2179 c-26 -15 -23 -65 3 -80 44 -23 89 26 61 67 -11 17 -45 24
-64 13z"/>
<path d="M2427 2177 c-27 -22 -27 -56 -1 -74 36 -23 74 -4 74 36 0 38 -44 61
-73 38z"/>
<path d="M2937 2177 c-23 -19 -27 -43 -10 -67 12 -17 21 -20 42 -15 30 8 41
21 41 51 0 31 -48 51 -73 31z"/>
<path d="M643 2032 c-6 -4 -14 -19 -18 -33 -5 -21 -2 -30 15 -42 29 -20 52
-15 70 16 13 23 13 28 -4 46 -20 22 -42 26 -63 13z"/>
<path d="M1143 2022 c-20 -21 -16 -50 11 -67 29 -19 61 -8 71 26 14 43 -48 74
-82 41z"/>
<path d="M1657 2022 c-24 -26 -21 -49 7 -67 29 -19 54 -10 67 23 18 48 -40 82
-74 44z"/>
<path d="M2167 2022 c-24 -26 -21 -49 7 -67 45 -30 91 16 61 61 -19 29 -46 31
-68 6z"/>
<path d="M2676 2024 c-21 -20 -20 -47 2 -67 43 -39 99 14 65 62 -17 25 -46 27
-67 5z"/>
<path d="M388 1879 c-18 -10 -24 -45 -10 -65 24 -37 82 -16 82 30 0 40 -34 57
-72 35z"/>
<path d="M892 1878 c-19 -19 -14 -62 9 -76 17 -11 25 -11 45 3 41 27 27 85
-21 85 -12 0 -26 -5 -33 -12z"/>
<path d="M1402 1878 c-17 -17 -15 -65 4 -76 26 -14 64 -2 70 23 12 49 -40 87
-74 53z"/>
<path d="M1913 1878 c-27 -35 -15 -76 24 -83 40 -6 70 54 41 83 -16 16 -53 15
-65 0z"/>
<path d="M2423 1878 c-18 -24 -22 -46 -10 -61 36 -45 100 -13 81 41 -10 30
-53 42 -71 20z"/>
<path d="M2927 1869 c-27 -38 8 -88 50 -72 54 20 38 93 -21 93 -8 0 -21 -9
-29 -21z"/>
<path d="M629 1719 c-8 -16 -8 -28 0 -45 15 -34 67 -34 82 0 16 35 -3 66 -41
66 -20 0 -33 -7 -41 -21z"/>
<path d="M1139 1719 c-25 -48 34 -96 72 -58 23 23 24 42 3 63 -22 23 -61 20
-75 -5z"/>
<path d="M1649 1719 c-8 -16 -8 -28 0 -45 19 -43 89 -26 89 21 0 45 -67 63
-89 24z"/>
<path d="M2159 1719 c-18 -34 3 -69 40 -69 33 0 51 22 45 54 -6 39 -66 50 -85
15z"/>
<path d="M2672 1728 c-7 -7 -12 -21 -12 -33 0 -29 19 -45 52 -45 38 0 57 43
32 71 -19 22 -54 25 -72 7z"/>
<path d="M398 1592 c-22 -4 -35 -49 -21 -71 6 -9 23 -16 38 -16 34 0 50 23 42
57 -7 26 -28 37 -59 30z"/>
<path d="M908 1592 c-22 -4 -35 -49 -21 -71 6 -9 23 -16 38 -16 34 0 50 23 42
57 -7 26 -28 37 -59 30z"/>
<path d="M1413 1587 c-25 -11 -31 -55 -11 -75 16 -16 53 -15 68 2 30 37 -14
94 -57 73z"/>
<path d="M1930 1591 c-48 -13 -35 -91 14 -91 28 0 46 18 46 45 0 31 -30 53
-60 46z"/>
<path d="M2433 1589 c-26 -9 -32 -56 -11 -77 16 -16 53 -15 68 2 29 36 -13 92
-57 75z"/>
<path d="M2921 1568 c-13 -33 9 -63 45 -63 35 0 56 43 34 69 -20 25 -69 20
-79 -6z"/>
<path d="M638 1430 c-22 -18 -22 -20 -8 -47 26 -47 80 -40 85 10 5 46 -40 67
-77 37z"/>
<path d="M1150 1430 c-11 -11 -20 -27 -20 -36 0 -20 28 -43 52 -44 16 0 48 35
48 52 0 11 -38 48 -50 48 -5 0 -19 -9 -30 -20z"/>
<path d="M1660 1430 c-24 -24 -25 -43 -4 -64 17 -18 42 -20 63 -7 20 13 17 62
-5 78 -24 17 -30 17 -54 -7z"/>
<path d="M2170 1430 c-24 -24 -25 -43 -4 -64 20 -21 47 -20 66 2 19 21 15 52
-8 69 -24 17 -31 16 -54 -7z"/>
<path d="M2680 1432 c-31 -25 -21 -69 17 -78 50 -13 76 50 35 84 -21 16 -26
15 -52 -6z"/>
<path d="M388 1289 c-25 -14 -24 -65 1 -79 33 -17 71 4 71 39 0 42 -36 62 -72
40z"/>
<path d="M898 1289 c-26 -15 -23 -65 3 -80 34 -18 69 3 69 40 0 42 -36 62 -72
40z"/>
<path d="M1406 1287 c-22 -16 -18 -65 6 -80 28 -18 68 7 68 42 0 44 -39 63
-74 38z"/>
<path d="M1918 1289 c-25 -14 -24 -65 1 -79 11 -5 24 -10 30 -10 16 0 41 30
41 50 0 21 -25 50 -43 50 -7 0 -20 -5 -29 -11z"/>
<path d="M2428 1289 c-25 -14 -24 -65 1 -79 27 -14 37 -13 55 6 40 39 -8 101
-56 73z"/>
<path d="M2938 1288 c-26 -22 -29 -47 -8 -68 25 -25 42 -25 63 -2 21 23 22 46
1 66 -19 19 -35 20 -56 4z"/>
<path d="M636 1131 c-33 -37 10 -94 53 -71 43 22 28 90 -19 90 -9 0 -25 -9
-34 -19z"/>
<path d="M1146 1134 c-21 -21 -20 -40 4 -64 25 -25 35 -25 61 1 14 14 18 27
13 42 -12 39 -50 49 -78 21z"/>
<path d="M1656 1134 c-19 -19 -20 -35 -3 -56 21 -29 61 -27 77 3 9 16 8 26 -5
45 -18 28 -46 31 -69 8z"/>
<path d="M2166 1134 c-22 -21 -20 -50 5 -67 44 -32 94 14 64 59 -18 28 -46 31
-69 8z"/>
<path d="M2676 1134 c-22 -21 -20 -50 5 -67 44 -32 94 14 64 59 -18 28 -46 31
-69 8z"/>
<path d="M382 988 c-28 -28 -7 -78 33 -78 40 0 61 50 33 78 -7 7 -21 12 -33
12 -12 0 -26 -5 -33 -12z"/>
<path d="M886 978 c-13 -19 -14 -25 -2 -43 26 -40 86 -27 86 19 0 47 -57 63
-84 24z"/>
<path d="M1402 988 c-27 -27 -10 -78 27 -78 32 0 51 16 51 45 0 12 -5 26 -12
33 -7 7 -21 12 -33 12 -12 0 -26 -5 -33 -12z"/>
<path d="M1913 988 c-20 -26 -21 -46 -4 -62 34 -31 81 -14 81 29 0 12 -5 26
-12 33 -16 16 -53 15 -65 0z"/>
<path d="M2419 984 c-23 -22 -12 -63 19 -71 31 -7 56 7 60 36 7 45 -46 69 -79
35z"/>
<path d="M2933 992 c-15 -9 -19 -32 -9 -59 5 -16 15 -23 35 -23 32 0 51 16 51
45 0 38 -43 59 -77 37z"/>
<path d="M1149 839 c-10 -10 -19 -25 -19 -33 0 -20 28 -46 50 -46 10 0 26 7
34 16 19 18 18 16 7 47 -13 33 -47 41 -72 16z"/>
<path d="M2171 843 c-38 -26 -16 -83 32 -83 50 0 57 80 8 93 -11 2 -29 -2 -40
-10z"/>
<path d="M630 830 c-22 -41 13 -80 59 -65 48 15 31 85 -19 85 -19 0 -33 -7
-40 -20z"/>
<path d="M1650 835 c-19 -23 -4 -64 26 -71 38 -10 68 23 55 59 -8 21 -17 27
-40 27 -15 0 -34 -7 -41 -15z"/>
<path d="M2670 834 c-19 -22 -1 -68 29 -72 43 -6 70 39 46 78 -10 16 -61 12
-75 -6z"/>
<path d="M897 695 c-24 -17 -22 -62 4 -76 45 -24 88 25 61 69 -12 18 -45 22
-65 7z"/>
<path d="M1413 700 c-17 -7 -23 -18 -23 -38 0 -40 23 -58 58 -46 32 11 41 53
17 78 -18 18 -21 18 -52 6z"/>
<path d="M1917 698 c-21 -11 -22 -61 -1 -78 24 -20 68 -1 72 31 5 40 -36 67
-71 47z"/>
<path d="M2425 696 c-21 -15 -17 -65 7 -79 28 -18 68 7 68 42 0 38 -44 60 -75
37z"/>
<path d="M1147 542 c-24 -26 -21 -49 8 -68 23 -15 27 -15 50 0 29 19 31 33 9
64 -18 27 -45 28 -67 4z"/>
<path d="M1657 542 c-24 -26 -21 -49 8 -68 31 -20 52 -13 65 22 19 50 -38 85
-73 46z"/>
<path d="M2166 541 c-36 -40 7 -96 54 -71 25 13 30 33 16 61 -15 31 -47 35
-70 10z"/>
<path d="M1402 398 c-29 -29 -8 -80 33 -80 30 0 45 16 45 49 0 35 -53 56 -78
31z"/>
<path d="M1913 398 c-22 -28 -22 -48 -2 -67 44 -41 109 25 67 67 -16 16 -53
15 -65 0z"/>
<path d="M1649 239 c-8 -16 -8 -28 0 -45 19 -43 89 -26 89 21 0 45 -67 63 -89
24z"/>
</g>
</svg>
